<mxfile host="Electron" modified="2024-01-30T13:49:04.391Z" agent="Mozilla/5.0 (Windows NT 10.0; Win64; x64) AppleWebKit/537.36 (KHTML, like Gecko) draw.io/22.0.2 Chrome/114.0.5735.289 Electron/25.8.4 Safari/537.36" etag="hg5Pg5uGTlh9lhCQxjKg" version="22.0.2" type="device">
  <diagram name="Page-1" id="e7e014a7-5840-1c2e-5031-d8a46d1fe8dd">
    <mxGraphModel dx="714" dy="418" grid="1" gridSize="10" guides="1" tooltips="1" connect="1" arrows="1" fold="1" page="1" pageScale="1" pageWidth="1169" pageHeight="826" background="none" math="0" shadow="0">
      <root>
        <mxCell id="0" />
        <mxCell id="1" parent="0" />
        <mxCell id="38" value="" style="ellipse;shape=endState;fillColor=#000000;strokeColor=default;" parent="1" vertex="1">
          <mxGeometry x="475" y="500" width="30" height="30" as="geometry" />
        </mxCell>
        <mxCell id="6" value="" style="edgeStyle=elbowEdgeStyle;elbow=horizontal;verticalAlign=bottom;endArrow=open;endSize=8;strokeColor=default;endFill=1;rounded=0;entryX=0.5;entryY=0;entryDx=0;entryDy=0;exitX=0.5;exitY=1;exitDx=0;exitDy=0;" parent="1" source="wlp53czp1e3O-tcDBJMG-41" target="7" edge="1">
          <mxGeometry x="264.5" y="168" as="geometry">
            <mxPoint x="372.75" y="208" as="targetPoint" />
            <mxPoint x="403.25" y="170" as="sourcePoint" />
          </mxGeometry>
        </mxCell>
        <mxCell id="7" value="Idle" style="rounded=1;whiteSpace=wrap;" parent="1" vertex="1">
          <mxGeometry x="280" y="200" width="120" height="40" as="geometry" />
        </mxCell>
        <mxCell id="8" value="Create new CSR" style="rounded=1;whiteSpace=wrap;" parent="1" vertex="1">
          <mxGeometry x="280" y="360" width="120" height="40" as="geometry" />
        </mxCell>
        <mxCell id="wlp53czp1e3O-tcDBJMG-41" value="" style="ellipse;whiteSpace=wrap;html=1;aspect=fixed;fillColor=#000000;" parent="1" vertex="1">
          <mxGeometry x="325" y="140" width="30" height="30" as="geometry" />
        </mxCell>
        <mxCell id="m9hRqMUufPxiMiX7i_o8-38" value="Publish CSR response" style="rounded=1;whiteSpace=wrap;" vertex="1" parent="1">
          <mxGeometry x="280" y="430" width="120" height="40" as="geometry" />
        </mxCell>
        <mxCell id="m9hRqMUufPxiMiX7i_o8-39" value="Rotate old certificate with new one" style="rounded=1;whiteSpace=wrap;" vertex="1" parent="1">
          <mxGeometry x="430" y="280" width="120" height="40" as="geometry" />
        </mxCell>
        <mxCell id="m9hRqMUufPxiMiX7i_o8-40" value="Publish certificate acknowledgement" style="rounded=1;whiteSpace=wrap;" vertex="1" parent="1">
          <mxGeometry x="430" y="360" width="120" height="40" as="geometry" />
        </mxCell>
        <mxCell id="m9hRqMUufPxiMiX7i_o8-41" value="CSR request ?" style="rhombus;whiteSpace=wrap;html=1;rounded=0;" vertex="1" parent="1">
          <mxGeometry x="280" y="270" width="120" height="60" as="geometry" />
        </mxCell>
        <mxCell id="m9hRqMUufPxiMiX7i_o8-44" value="Restart Greengrass service" style="rounded=1;whiteSpace=wrap;" vertex="1" parent="1">
          <mxGeometry x="430" y="430" width="120" height="40" as="geometry" />
        </mxCell>
        <mxCell id="m9hRqMUufPxiMiX7i_o8-45" value="" style="edgeStyle=elbowEdgeStyle;elbow=horizontal;verticalAlign=bottom;endArrow=open;endSize=8;strokeColor=default;endFill=1;rounded=0;entryX=0.5;entryY=0;entryDx=0;entryDy=0;exitX=0.5;exitY=1;exitDx=0;exitDy=0;" edge="1" parent="1" source="7" target="m9hRqMUufPxiMiX7i_o8-41">
          <mxGeometry x="264.5" y="168" as="geometry">
            <mxPoint x="350" y="210" as="targetPoint" />
            <mxPoint x="350" y="180" as="sourcePoint" />
          </mxGeometry>
        </mxCell>
        <mxCell id="m9hRqMUufPxiMiX7i_o8-46" value="" style="edgeStyle=elbowEdgeStyle;elbow=horizontal;verticalAlign=bottom;endArrow=open;endSize=8;strokeColor=default;endFill=1;rounded=0;entryX=0.5;entryY=0;entryDx=0;entryDy=0;exitX=0.5;exitY=1;exitDx=0;exitDy=0;" edge="1" parent="1" source="m9hRqMUufPxiMiX7i_o8-41" target="8">
          <mxGeometry x="264.5" y="168" as="geometry">
            <mxPoint x="350" y="280" as="targetPoint" />
            <mxPoint x="350" y="250" as="sourcePoint" />
          </mxGeometry>
        </mxCell>
        <mxCell id="m9hRqMUufPxiMiX7i_o8-47" value="" style="edgeStyle=elbowEdgeStyle;elbow=horizontal;verticalAlign=bottom;endArrow=open;endSize=8;strokeColor=default;endFill=1;rounded=0;entryX=0.5;entryY=0;entryDx=0;entryDy=0;exitX=0.5;exitY=1;exitDx=0;exitDy=0;" edge="1" parent="1" source="8" target="m9hRqMUufPxiMiX7i_o8-38">
          <mxGeometry x="264.5" y="168" as="geometry">
            <mxPoint x="350" y="370" as="targetPoint" />
            <mxPoint x="350" y="340" as="sourcePoint" />
          </mxGeometry>
        </mxCell>
        <mxCell id="m9hRqMUufPxiMiX7i_o8-48" value="" style="edgeStyle=elbowEdgeStyle;elbow=horizontal;verticalAlign=bottom;endArrow=open;endSize=8;strokeColor=default;endFill=1;rounded=0;entryX=0;entryY=0.5;entryDx=0;entryDy=0;" edge="1" parent="1" target="7">
          <mxGeometry x="264.5" y="168" as="geometry">
            <mxPoint x="350" y="440" as="targetPoint" />
            <mxPoint x="340" y="500" as="sourcePoint" />
            <Array as="points">
              <mxPoint x="250" y="410" />
            </Array>
          </mxGeometry>
        </mxCell>
        <mxCell id="m9hRqMUufPxiMiX7i_o8-49" value="" style="endArrow=none;html=1;rounded=0;entryX=0.5;entryY=1;entryDx=0;entryDy=0;" edge="1" parent="1" target="m9hRqMUufPxiMiX7i_o8-38">
          <mxGeometry width="50" height="50" relative="1" as="geometry">
            <mxPoint x="340" y="500" as="sourcePoint" />
            <mxPoint x="420" y="370" as="targetPoint" />
          </mxGeometry>
        </mxCell>
        <mxCell id="m9hRqMUufPxiMiX7i_o8-50" value="" style="edgeStyle=elbowEdgeStyle;elbow=horizontal;verticalAlign=bottom;endArrow=open;endSize=8;strokeColor=default;endFill=1;rounded=0;entryX=0;entryY=0.5;entryDx=0;entryDy=0;exitX=1;exitY=0.5;exitDx=0;exitDy=0;" edge="1" parent="1" source="m9hRqMUufPxiMiX7i_o8-41" target="m9hRqMUufPxiMiX7i_o8-39">
          <mxGeometry x="264.5" y="168" as="geometry">
            <mxPoint x="350" y="370" as="targetPoint" />
            <mxPoint x="350" y="340" as="sourcePoint" />
          </mxGeometry>
        </mxCell>
        <mxCell id="m9hRqMUufPxiMiX7i_o8-51" value="" style="edgeStyle=elbowEdgeStyle;elbow=horizontal;verticalAlign=bottom;endArrow=open;endSize=8;strokeColor=default;endFill=1;rounded=0;entryX=0.5;entryY=0;entryDx=0;entryDy=0;exitX=0.5;exitY=1;exitDx=0;exitDy=0;" edge="1" parent="1" source="m9hRqMUufPxiMiX7i_o8-39" target="m9hRqMUufPxiMiX7i_o8-40">
          <mxGeometry x="264.5" y="168" as="geometry">
            <mxPoint x="440" y="310" as="targetPoint" />
            <mxPoint x="395" y="310" as="sourcePoint" />
          </mxGeometry>
        </mxCell>
        <mxCell id="m9hRqMUufPxiMiX7i_o8-52" value="" style="edgeStyle=elbowEdgeStyle;elbow=horizontal;verticalAlign=bottom;endArrow=open;endSize=8;strokeColor=default;endFill=1;rounded=0;entryX=0.5;entryY=0;entryDx=0;entryDy=0;exitX=0.5;exitY=1;exitDx=0;exitDy=0;" edge="1" parent="1" source="m9hRqMUufPxiMiX7i_o8-40" target="m9hRqMUufPxiMiX7i_o8-44">
          <mxGeometry x="264.5" y="168" as="geometry">
            <mxPoint x="500" y="370" as="targetPoint" />
            <mxPoint x="500" y="330" as="sourcePoint" />
          </mxGeometry>
        </mxCell>
        <mxCell id="m9hRqMUufPxiMiX7i_o8-53" value="" style="edgeStyle=elbowEdgeStyle;elbow=horizontal;verticalAlign=bottom;endArrow=open;endSize=8;strokeColor=default;endFill=1;rounded=0;entryX=0.5;entryY=0;entryDx=0;entryDy=0;exitX=0.5;exitY=1;exitDx=0;exitDy=0;" edge="1" parent="1" source="m9hRqMUufPxiMiX7i_o8-44" target="38">
          <mxGeometry x="264.5" y="168" as="geometry">
            <mxPoint x="500" y="440" as="targetPoint" />
            <mxPoint x="500" y="410" as="sourcePoint" />
          </mxGeometry>
        </mxCell>
      </root>
    </mxGraphModel>
  </diagram>
</mxfile>
